<?xml version="1.0" encoding="UTF-8"?>
<svg id="Layer_2" data-name="Layer 2" xmlns="http://www.w3.org/2000/svg" viewBox="0 0 348.37 226.3">
  <g id="Layer_1-2" data-name="Layer 1">
    <g>
      <g>
        <polygon points="262.01 80.82 305.96 154.05 262.01 154.05 235.35 154.05 193.39 84.09 161.6 31.15 193.39 12.04 213.41 0 262.01 80.82"/>
        <path d="M176.71,198.38v26.23h-12.76v-2.9c-4.3,2.81-9.45,4.44-14.96,4.44h-.14c-15.24-.09-27.63-12.53-27.63-27.77s12.39-27.67,27.63-27.77h.14c5.51,0,10.66,1.64,14.96,4.44v-3.04h12.76v26.36Zm-12.76,2.9v-5.8c-1.36-7.01-7.57-12.34-14.96-12.34h-.14c-8.37,.05-15.15,6.88-15.15,15.24s6.78,15.2,15.15,15.29h.14c7.39,0,13.6-5.38,14.96-12.39Z"/>
        <path d="M236.76,198.38v26.23h-12.76v-2.9c-4.35,2.81-9.44,4.44-14.96,4.44h-.14c-15.24-.09-27.63-12.53-27.63-27.77s12.39-27.67,27.63-27.77h.14c5.52,0,10.61,1.64,14.96,4.44v-21.08h12.76v44.41Zm-12.76,2.9v-5.8c-1.36-7.01-7.58-12.34-14.96-12.34h-.14c-8.37,.05-15.15,6.88-15.15,15.24s6.78,15.2,15.15,15.29h.14c7.38,0,13.61-5.38,14.96-12.39Z"/>
        <polygon points="193.39 125.25 210.62 154.05 193.39 154.05 140.07 154.05 100.9 88.85 99.19 86.01 100.9 85 151.05 54.81 193.39 125.25"/>
        <path d="M116.03,198.38v26.23h-12.76v-2.9c-4.35,2.81-9.49,4.44-15.01,4.44h-.14c-15.24-.09-27.63-12.53-27.63-27.77s12.39-27.67,27.63-27.77h.14c5.52,0,10.66,1.64,15.01,4.44v-21.08h12.76v44.41Zm-12.76,2.9v-5.8c-1.36-7.01-7.57-12.34-15.01-12.34h-.14c-8.37,.05-15.14,6.88-15.14,15.24s6.78,15.2,15.14,15.29h.14c7.43,0,13.65-5.38,15.01-12.39Z"/>
        <polygon points="100.9 129.96 115.35 154.05 100.9 154.05 44.75 154.05 36.82 140.83 88.69 109.67 100.9 129.96"/>
        <path d="M55.49,198.38v26.23h-12.76v-2.9c-4.35,2.81-9.49,4.44-15.01,4.44h-.14c-15.19-.09-27.58-12.53-27.58-27.77s12.39-27.67,27.58-27.77h.14c5.51,0,10.66,1.64,15.01,4.44v-3.04h12.76v26.36Zm-12.76,2.9v-5.8c-1.36-7.01-7.57-12.34-15.01-12.34h-.14c-8.32,.05-15.1,6.88-15.1,15.24s6.78,15.2,15.1,15.29h.14c7.43,0,13.65-5.38,15.01-12.39Z"/>
      </g>
      <path d="M255.47,204.04c.13,.88,.53,1.93,1.23,3.16,.69,1.23,1.64,2.41,2.83,3.54,1.19,1.13,2.66,2.09,4.39,2.88,1.73,.79,3.73,1.18,5.99,1.18,5.6,0,9.62-2.23,12.07-6.7h13.21c-.75,2.39-1.92,4.67-3.49,6.84-1.57,2.17-3.46,4.1-5.66,5.8-2.2,1.7-4.67,3.05-7.4,4.06-2.74,1-5.64,1.51-8.73,1.51-3.96,0-7.64-.72-11.04-2.17-3.4-1.45-6.32-3.43-8.77-5.94-2.45-2.51-4.37-5.45-5.75-8.82-1.38-3.36-2.08-6.96-2.08-10.8s.66-7.26,1.98-10.66c1.32-3.4,3.17-6.38,5.57-8.96,2.39-2.58,5.28-4.64,8.68-6.18,3.4-1.54,7.17-2.31,11.32-2.31s8.1,.8,11.46,2.41c3.36,1.6,6.19,3.69,8.49,6.27,2.29,2.58,4.06,5.5,5.28,8.77,1.23,3.27,1.84,6.54,1.84,9.81,0,1.26-.08,2.41-.24,3.44-.16,1.04-.33,2-.52,2.88h-40.65Zm28.58-10.09c-.38-2.08-1.01-3.87-1.89-5.38-.88-1.51-1.95-2.75-3.21-3.73-1.26-.97-2.66-1.7-4.2-2.17-1.54-.47-3.16-.71-4.86-.71-1.26,0-2.63,.17-4.1,.52-1.48,.35-2.91,.96-4.29,1.84-1.38,.88-2.66,2.09-3.82,3.63-1.16,1.54-2.03,3.54-2.59,5.99h28.96Z"/>
      <path d="M301.97,154.81h12.55v21.13c.38-.38,.94-.88,1.7-1.51,.75-.63,1.68-1.23,2.78-1.79,1.1-.57,2.41-1.07,3.91-1.51,1.51-.44,3.24-.66,5.19-.66,1.45,0,2.92,.19,4.43,.57,1.51,.38,2.97,.93,4.39,1.65,1.41,.72,2.75,1.57,4.01,2.55,1.26,.98,2.36,2.06,3.3,3.25,1.01,1.32,1.79,2.75,2.36,4.29,.57,1.54,.99,3.07,1.27,4.57,.28,1.51,.44,2.94,.47,4.29,.03,1.35,.05,2.5,.05,3.44v29.52h-12.54v-26.79c0-1.38-.08-3-.24-4.86-.16-1.85-.58-3.58-1.27-5.19-.69-1.6-1.76-2.97-3.21-4.1-1.45-1.13-3.46-1.7-6.04-1.7s-4.69,.63-6.13,1.89c-1.45,1.26-2.5,2.75-3.16,4.48-.66,1.73-1.04,3.49-1.13,5.28-.09,1.79-.14,3.25-.14,4.39v26.6h-12.55v-69.8Z"/>
    </g>
  </g>
</svg>