<svg width="264" height="264" viewBox="0 0 264 264" fill="none" xmlns="http://www.w3.org/2000/svg">
<path d="M9.80172 0.75H0.75V9.80172H9.80172V0.75Z" fill="#232B39"/>
<path d="M18.8534 0.75H9.80172V9.80172H18.8534V0.75Z" fill="#232B39"/>
<path d="M27.9052 0.75H18.8534V9.80172H27.9052V0.75Z" fill="#232B39"/>
<path d="M36.9569 0.75H27.9052V9.80172H36.9569V0.75Z" fill="#232B39"/>
<path d="M46.0086 0.75H36.9569V9.80172H46.0086V0.75Z" fill="#232B39"/>
<path d="M55.0603 0.75H46.0086V9.80172H55.0603V0.75Z" fill="#232B39"/>
<path d="M64.1121 0.75H55.0603V9.80172H64.1121V0.75Z" fill="#232B39"/>
<path d="M82.2155 0.75H73.1638V9.80172H82.2155V0.75Z" fill="#232B39"/>
<path d="M91.2673 0.75H82.2155V9.80172H91.2673V0.75Z" fill="#232B39"/>
<path d="M118.422 0.75H109.371V9.80172H118.422V0.75Z" fill="#232B39"/>
<path d="M145.578 0.75H136.526V9.80172H145.578V0.75Z" fill="#232B39"/>
<path d="M163.681 0.75H154.629V9.80172H163.681V0.75Z" fill="#232B39"/>
<path d="M172.733 0.75H163.681V9.80172H172.733V0.75Z" fill="#232B39"/>
<path d="M181.785 0.75H172.733V9.80172H181.785V0.75Z" fill="#232B39"/>
<path d="M190.836 0.75H181.785V9.80172H190.836V0.75Z" fill="#232B39"/>
<path d="M208.94 0.75H199.888V9.80172H208.94V0.75Z" fill="#232B39"/>
<path d="M217.991 0.75H208.94V9.80172H217.991V0.75Z" fill="#232B39"/>
<path d="M227.043 0.75H217.991V9.80172H227.043V0.75Z" fill="#232B39"/>
<path d="M236.095 0.75H227.043V9.80172H236.095V0.75Z" fill="#232B39"/>
<path d="M245.147 0.75H236.095V9.80172H245.147V0.75Z" fill="#232B39"/>
<path d="M254.198 0.75H245.147V9.80172H254.198V0.75Z" fill="#232B39"/>
<path d="M263.25 0.75H254.198V9.80172H263.25V0.75Z" fill="#232B39"/>
<path d="M9.80172 9.80172H0.75V18.8534H9.80172V9.80172Z" fill="#232B39"/>
<path d="M64.1121 9.80172H55.0603V18.8534H64.1121V9.80172Z" fill="#232B39"/>
<path d="M91.2673 9.80172H82.2155V18.8534H91.2673V9.80172Z" fill="#232B39"/>
<path d="M109.371 9.80172H100.319V18.8534H109.371V9.80172Z" fill="#232B39"/>
<path d="M118.422 9.80172H109.371V18.8534H118.422V9.80172Z" fill="#232B39"/>
<path d="M127.474 9.80172H118.422V18.8534H127.474V9.80172Z" fill="#232B39"/>
<path d="M154.629 9.80172H145.578V18.8534H154.629V9.80172Z" fill="#232B39"/>
<path d="M163.681 9.80172H154.629V18.8534H163.681V9.80172Z" fill="#232B39"/>
<path d="M172.733 9.80172H163.681V18.8534H172.733V9.80172Z" fill="#232B39"/>
<path d="M208.94 9.80172H199.888V18.8534H208.94V9.80172Z" fill="#232B39"/>
<path d="M263.25 9.80172H254.198V18.8534H263.25V9.80172Z" fill="#232B39"/>
<path d="M9.80172 18.8534H0.75V27.9052H9.80172V18.8534Z" fill="#232B39"/>
<path d="M27.9052 18.8534H18.8534V27.9052H27.9052V18.8534Z" fill="#232B39"/>
<path d="M36.9569 18.8534H27.9052V27.9052H36.9569V18.8534Z" fill="#232B39"/>
<path d="M46.0086 18.8534H36.9569V27.9052H46.0086V18.8534Z" fill="#232B39"/>
<path d="M64.1121 18.8534H55.0603V27.9052H64.1121V18.8534Z" fill="#232B39"/>
<path d="M100.319 18.8534H91.2673V27.9052H100.319V18.8534Z" fill="#232B39"/>
<path d="M118.422 18.8534H109.371V27.9052H118.422V18.8534Z" fill="#232B39"/>
<path d="M127.474 18.8534H118.422V27.9052H127.474V18.8534Z" fill="#232B39"/>
<path d="M136.526 18.8534H127.474V27.9052H136.526V18.8534Z" fill="#232B39"/>
<path d="M181.785 18.8534H172.733V27.9052H181.785V18.8534Z" fill="#232B39"/>
<path d="M208.94 18.8534H199.888V27.9052H208.94V18.8534Z" fill="#232B39"/>
<path d="M227.043 18.8534H217.991V27.9052H227.043V18.8534Z" fill="#232B39"/>
<path d="M236.095 18.8534H227.043V27.9052H236.095V18.8534Z" fill="#232B39"/>
<path d="M245.147 18.8534H236.095V27.9052H245.147V18.8534Z" fill="#232B39"/>
<path d="M263.25 18.8534H254.198V27.9052H263.25V18.8534Z" fill="#232B39"/>
<path d="M9.80172 27.9052H0.75V36.9569H9.80172V27.9052Z" fill="#232B39"/>
<path d="M27.9052 27.9052H18.8534V36.9569H27.9052V27.9052Z" fill="#232B39"/>
<path d="M36.9569 27.9052H27.9052V36.9569H36.9569V27.9052Z" fill="#232B39"/>
<path d="M46.0086 27.9052H36.9569V36.9569H46.0086V27.9052Z" fill="#232B39"/>
<path d="M64.1121 27.9052H55.0603V36.9569H64.1121V27.9052Z" fill="#232B39"/>
<path d="M109.371 27.9052H100.319V36.9569H109.371V27.9052Z" fill="#232B39"/>
<path d="M127.474 27.9052H118.422V36.9569H127.474V27.9052Z" fill="#232B39"/>
<path d="M136.526 27.9052H127.474V36.9569H136.526V27.9052Z" fill="#232B39"/>
<path d="M145.578 27.9052H136.526V36.9569H145.578V27.9052Z" fill="#232B39"/>
<path d="M154.629 27.9052H145.578V36.9569H154.629V27.9052Z" fill="#232B39"/>
<path d="M163.681 27.9052H154.629V36.9569H163.681V27.9052Z" fill="#232B39"/>
<path d="M172.733 27.9052H163.681V36.9569H172.733V27.9052Z" fill="#232B39"/>
<path d="M190.836 27.9052H181.785V36.9569H190.836V27.9052Z" fill="#232B39"/>
<path d="M208.94 27.9052H199.888V36.9569H208.94V27.9052Z" fill="#232B39"/>
<path d="M227.043 27.9052H217.991V36.9569H227.043V27.9052Z" fill="#232B39"/>
<path d="M236.095 27.9052H227.043V36.9569H236.095V27.9052Z" fill="#232B39"/>
<path d="M245.147 27.9052H236.095V36.9569H245.147V27.9052Z" fill="#232B39"/>
<path d="M263.25 27.9052H254.198V36.9569H263.25V27.9052Z" fill="#232B39"/>
<path d="M9.80172 36.9569H0.75V46.0086H9.80172V36.9569Z" fill="#232B39"/>
<path d="M27.9052 36.9569H18.8534V46.0086H27.9052V36.9569Z" fill="#232B39"/>
<path d="M36.9569 36.9569H27.9052V46.0086H36.9569V36.9569Z" fill="#232B39"/>
<path d="M46.0086 36.9569H36.9569V46.0086H46.0086V36.9569Z" fill="#232B39"/>
<path d="M64.1121 36.9569H55.0603V46.0086H64.1121V36.9569Z" fill="#232B39"/>
<path d="M109.371 36.9569H100.319V46.0086H109.371V36.9569Z" fill="#232B39"/>
<path d="M118.422 36.9569H109.371V46.0086H118.422V36.9569Z" fill="#232B39"/>
<path d="M136.526 36.9569H127.474V46.0086H136.526V36.9569Z" fill="#232B39"/>
<path d="M145.578 36.9569H136.526V46.0086H145.578V36.9569Z" fill="#232B39"/>
<path d="M154.629 36.9569H145.578V46.0086H154.629V36.9569Z" fill="#232B39"/>
<path d="M163.681 36.9569H154.629V46.0086H163.681V36.9569Z" fill="#232B39"/>
<path d="M181.785 36.9569H172.733V46.0086H181.785V36.9569Z" fill="#232B39"/>
<path d="M208.94 36.9569H199.888V46.0086H208.94V36.9569Z" fill="#232B39"/>
<path d="M227.043 36.9569H217.991V46.0086H227.043V36.9569Z" fill="#232B39"/>
<path d="M236.095 36.9569H227.043V46.0086H236.095V36.9569Z" fill="#232B39"/>
<path d="M245.147 36.9569H236.095V46.0086H245.147V36.9569Z" fill="#232B39"/>
<path d="M263.25 36.9569H254.198V46.0086H263.25V36.9569Z" fill="#232B39"/>
<path d="M9.80172 46.0086H0.75V55.0603H9.80172V46.0086Z" fill="#232B39"/>
<path d="M64.1121 46.0086H55.0603V55.0603H64.1121V46.0086Z" fill="#232B39"/>
<path d="M91.2673 46.0086H82.2155V55.0603H91.2673V46.0086Z" fill="#232B39"/>
<path d="M100.319 46.0086H91.2673V55.0603H100.319V46.0086Z" fill="#232B39"/>
<path d="M127.474 46.0086H118.422V55.0603H127.474V46.0086Z" fill="#232B39"/>
<path d="M136.526 46.0086H127.474V55.0603H136.526V46.0086Z" fill="#232B39"/>
<path d="M145.578 46.0086H136.526V55.0603H145.578V46.0086Z" fill="#232B39"/>
<path d="M163.681 46.0086H154.629V55.0603H163.681V46.0086Z" fill="#232B39"/>
<path d="M181.785 46.0086H172.733V55.0603H181.785V46.0086Z" fill="#232B39"/>
<path d="M190.836 46.0086H181.785V55.0603H190.836V46.0086Z" fill="#232B39"/>
<path d="M208.94 46.0086H199.888V55.0603H208.94V46.0086Z" fill="#232B39"/>
<path d="M263.25 46.0086H254.198V55.0603H263.25V46.0086Z" fill="#232B39"/>
<path d="M9.80172 55.0603H0.75V64.1121H9.80172V55.0603Z" fill="#232B39"/>
<path d="M18.8534 55.0603H9.80172V64.1121H18.8534V55.0603Z" fill="#232B39"/>
<path d="M27.9052 55.0603H18.8534V64.1121H27.9052V55.0603Z" fill="#232B39"/>
<path d="M36.9569 55.0603H27.9052V64.1121H36.9569V55.0603Z" fill="#232B39"/>
<path d="M46.0086 55.0603H36.9569V64.1121H46.0086V55.0603Z" fill="#232B39"/>
<path d="M55.0603 55.0603H46.0086V64.1121H55.0603V55.0603Z" fill="#232B39"/>
<path d="M64.1121 55.0603H55.0603V64.1121H64.1121V55.0603Z" fill="#232B39"/>
<path d="M82.2155 55.0603H73.1638V64.1121H82.2155V55.0603Z" fill="#232B39"/>
<path d="M100.319 55.0603H91.2673V64.1121H100.319V55.0603Z" fill="#232B39"/>
<path d="M118.422 55.0603H109.371V64.1121H118.422V55.0603Z" fill="#232B39"/>
<path d="M136.526 55.0603H127.474V64.1121H136.526V55.0603Z" fill="#232B39"/>
<path d="M154.629 55.0603H145.578V64.1121H154.629V55.0603Z" fill="#232B39"/>
<path d="M172.733 55.0603H163.681V64.1121H172.733V55.0603Z" fill="#232B39"/>
<path d="M190.836 55.0603H181.785V64.1121H190.836V55.0603Z" fill="#232B39"/>
<path d="M208.94 55.0603H199.888V64.1121H208.94V55.0603Z" fill="#232B39"/>
<path d="M217.991 55.0603H208.94V64.1121H217.991V55.0603Z" fill="#232B39"/>
<path d="M227.043 55.0603H217.991V64.1121H227.043V55.0603Z" fill="#232B39"/>
<path d="M236.095 55.0603H227.043V64.1121H236.095V55.0603Z" fill="#232B39"/>
<path d="M245.147 55.0603H236.095V64.1121H245.147V55.0603Z" fill="#232B39"/>
<path d="M254.198 55.0603H245.147V64.1121H254.198V55.0603Z" fill="#232B39"/>
<path d="M263.25 55.0603H254.198V64.1121H263.25V55.0603Z" fill="#232B39"/>
<path d="M91.2673 64.1121H82.2155V73.1638H91.2673V64.1121Z" fill="#232B39"/>
<path d="M100.319 64.1121H91.2673V73.1638H100.319V64.1121Z" fill="#232B39"/>
<path d="M109.371 64.1121H100.319V73.1638H109.371V64.1121Z" fill="#232B39"/>
<path d="M118.422 64.1121H109.371V73.1638H118.422V64.1121Z" fill="#232B39"/>
<path d="M127.474 64.1121H118.422V73.1638H127.474V64.1121Z" fill="#232B39"/>
<path d="M136.526 64.1121H127.474V73.1638H136.526V64.1121Z" fill="#232B39"/>
<path d="M154.629 64.1121H145.578V73.1638H154.629V64.1121Z" fill="#232B39"/>
<path d="M172.733 64.1121H163.681V73.1638H172.733V64.1121Z" fill="#232B39"/>
<path d="M181.785 64.1121H172.733V73.1638H181.785V64.1121Z" fill="#232B39"/>
<path d="M18.8534 73.1638H9.80172V82.2155H18.8534V73.1638Z" fill="#232B39"/>
<path d="M27.9052 73.1638H18.8534V82.2155H27.9052V73.1638Z" fill="#232B39"/>
<path d="M36.9569 73.1638H27.9052V82.2155H36.9569V73.1638Z" fill="#232B39"/>
<path d="M64.1121 73.1638H55.0603V82.2155H64.1121V73.1638Z" fill="#232B39"/>
<path d="M73.1638 73.1638H64.1121V82.2155H73.1638V73.1638Z" fill="#232B39"/>
<path d="M82.2155 73.1638H73.1638V82.2155H82.2155V73.1638Z" fill="#232B39"/>
<path d="M91.2673 73.1638H82.2155V82.2155H91.2673V73.1638Z" fill="#232B39"/>
<path d="M100.319 73.1638H91.2673V82.2155H100.319V73.1638Z" fill="#232B39"/>
<path d="M109.371 73.1638H100.319V82.2155H109.371V73.1638Z" fill="#232B39"/>
<path d="M136.526 73.1638H127.474V82.2155H136.526V73.1638Z" fill="#232B39"/>
<path d="M172.733 73.1638H163.681V82.2155H172.733V73.1638Z" fill="#232B39"/>
<path d="M181.785 73.1638H172.733V82.2155H181.785V73.1638Z" fill="#232B39"/>
<path d="M199.888 73.1638H190.836V82.2155H199.888V73.1638Z" fill="#232B39"/>
<path d="M263.25 73.1638H254.198V82.2155H263.25V73.1638Z" fill="#232B39"/>
<path d="M36.9569 82.2155H27.9052V91.2673H36.9569V82.2155Z" fill="#232B39"/>
<path d="M46.0086 82.2155H36.9569V91.2673H46.0086V82.2155Z" fill="#232B39"/>
<path d="M55.0603 82.2155H46.0086V91.2673H55.0603V82.2155Z" fill="#232B39"/>
<path d="M91.2673 82.2155H82.2155V91.2673H91.2673V82.2155Z" fill="#232B39"/>
<path d="M118.422 82.2155H109.371V91.2673H118.422V82.2155Z" fill="#232B39"/>
<path d="M136.526 82.2155H127.474V91.2673H136.526V82.2155Z" fill="#232B39"/>
<path d="M145.578 82.2155H136.526V91.2673H145.578V82.2155Z" fill="#232B39"/>
<path d="M163.681 82.2155H154.629V91.2673H163.681V82.2155Z" fill="#232B39"/>
<path d="M172.733 82.2155H163.681V91.2673H172.733V82.2155Z" fill="#232B39"/>
<path d="M190.836 82.2155H181.785V91.2673H190.836V82.2155Z" fill="#232B39"/>
<path d="M208.94 82.2155H199.888V91.2673H208.94V82.2155Z" fill="#232B39"/>
<path d="M227.043 82.2155H217.991V91.2673H227.043V82.2155Z" fill="#232B39"/>
<path d="M236.095 82.2155H227.043V91.2673H236.095V82.2155Z" fill="#232B39"/>
<path d="M254.198 82.2155H245.147V91.2673H254.198V82.2155Z" fill="#232B39"/>
<path d="M18.8534 91.2673H9.80172V100.319H18.8534V91.2673Z" fill="#232B39"/>
<path d="M27.9052 91.2673H18.8534V100.319H27.9052V91.2673Z" fill="#232B39"/>
<path d="M46.0086 91.2673H36.9569V100.319H46.0086V91.2673Z" fill="#232B39"/>
<path d="M64.1121 91.2673H55.0603V100.319H64.1121V91.2673Z" fill="#232B39"/>
<path d="M73.1638 91.2673H64.1121V100.319H73.1638V91.2673Z" fill="#232B39"/>
<path d="M91.2673 91.2673H82.2155V100.319H91.2673V91.2673Z" fill="#232B39"/>
<path d="M100.319 91.2673H91.2673V100.319H100.319V91.2673Z" fill="#232B39"/>
<path d="M136.526 91.2673H127.474V100.319H136.526V91.2673Z" fill="#232B39"/>
<path d="M145.578 91.2673H136.526V100.319H145.578V91.2673Z" fill="#232B39"/>
<path d="M181.785 91.2673H172.733V100.319H181.785V91.2673Z" fill="#232B39"/>
<path d="M199.888 91.2673H190.836V100.319H199.888V91.2673Z" fill="#232B39"/>
<path d="M245.147 91.2673H236.095V100.319H245.147V91.2673Z" fill="#232B39"/>
<path d="M254.198 91.2673H245.147V100.319H254.198V91.2673Z" fill="#232B39"/>
<path d="M263.25 91.2673H254.198V100.319H263.25V91.2673Z" fill="#232B39"/>
<path d="M9.80172 100.319H0.75V109.371H9.80172V100.319Z" fill="#232B39"/>
<path d="M18.8534 100.319H9.80172V109.371H18.8534V100.319Z" fill="#232B39"/>
<path d="M27.9052 100.319H18.8534V109.371H27.9052V100.319Z" fill="#232B39"/>
<path d="M36.9569 100.319H27.9052V109.371H36.9569V100.319Z" fill="#232B39"/>
<path d="M73.1638 100.319H64.1121V109.371H73.1638V100.319Z" fill="#232B39"/>
<path d="M91.2673 100.319H82.2155V109.371H91.2673V100.319Z" fill="#232B39"/>
<path d="M118.422 100.319H109.371V109.371H118.422V100.319Z" fill="#232B39"/>
<path d="M136.526 100.319H127.474V109.371H136.526V100.319Z" fill="#232B39"/>
<path d="M145.578 100.319H136.526V109.371H145.578V100.319Z" fill="#232B39"/>
<path d="M163.681 100.319H154.629V109.371H163.681V100.319Z" fill="#232B39"/>
<path d="M208.94 100.319H199.888V109.371H208.94V100.319Z" fill="#232B39"/>
<path d="M217.991 100.319H208.94V109.371H217.991V100.319Z" fill="#232B39"/>
<path d="M227.043 100.319H217.991V109.371H227.043V100.319Z" fill="#232B39"/>
<path d="M236.095 100.319H227.043V109.371H236.095V100.319Z" fill="#232B39"/>
<path d="M245.147 100.319H236.095V109.371H245.147V100.319Z" fill="#232B39"/>
<path d="M254.198 100.319H245.147V109.371H254.198V100.319Z" fill="#232B39"/>
<path d="M263.25 100.319H254.198V109.371H263.25V100.319Z" fill="#232B39"/>
<path d="M9.80172 109.371H0.75V118.422H9.80172V109.371Z" fill="#232B39"/>
<path d="M18.8534 109.371H9.80172V118.422H18.8534V109.371Z" fill="#232B39"/>
<path d="M27.9052 109.371H18.8534V118.422H27.9052V109.371Z" fill="#232B39"/>
<path d="M36.9569 109.371H27.9052V118.422H36.9569V109.371Z" fill="#232B39"/>
<path d="M46.0086 109.371H36.9569V118.422H46.0086V109.371Z" fill="#232B39"/>
<path d="M55.0603 109.371H46.0086V118.422H55.0603V109.371Z" fill="#232B39"/>
<path d="M64.1121 109.371H55.0603V118.422H64.1121V109.371Z" fill="#232B39"/>
<path d="M73.1638 109.371H64.1121V118.422H73.1638V109.371Z" fill="#232B39"/>
<path d="M91.2673 109.371H82.2155V118.422H91.2673V109.371Z" fill="#232B39"/>
<path d="M100.319 109.371H91.2673V118.422H100.319V109.371Z" fill="#232B39"/>
<path d="M118.422 109.371H109.371V118.422H118.422V109.371Z" fill="#232B39"/>
<path d="M145.578 109.371H136.526V118.422H145.578V109.371Z" fill="#232B39"/>
<path d="M154.629 109.371H145.578V118.422H154.629V109.371Z" fill="#232B39"/>
<path d="M172.733 109.371H163.681V118.422H172.733V109.371Z" fill="#232B39"/>
<path d="M190.836 109.371H181.785V118.422H190.836V109.371Z" fill="#232B39"/>
<path d="M199.888 109.371H190.836V118.422H199.888V109.371Z" fill="#232B39"/>
<path d="M217.991 109.371H208.94V118.422H217.991V109.371Z" fill="#232B39"/>
<path d="M227.043 109.371H217.991V118.422H227.043V109.371Z" fill="#232B39"/>
<path d="M9.80172 118.422H0.75V127.474H9.80172V118.422Z" fill="#232B39"/>
<path d="M46.0086 118.422H36.9569V127.474H46.0086V118.422Z" fill="#232B39"/>
<path d="M55.0603 118.422H46.0086V127.474H55.0603V118.422Z" fill="#232B39"/>
<path d="M73.1638 118.422H64.1121V127.474H73.1638V118.422Z" fill="#232B39"/>
<path d="M118.422 118.422H109.371V127.474H118.422V118.422Z" fill="#232B39"/>
<path d="M127.474 118.422H118.422V127.474H127.474V118.422Z" fill="#232B39"/>
<path d="M136.526 118.422H127.474V127.474H136.526V118.422Z" fill="#232B39"/>
<path d="M145.578 118.422H136.526V127.474H145.578V118.422Z" fill="#232B39"/>
<path d="M172.733 118.422H163.681V127.474H172.733V118.422Z" fill="#232B39"/>
<path d="M199.888 118.422H190.836V127.474H199.888V118.422Z" fill="#232B39"/>
<path d="M208.94 118.422H199.888V127.474H208.94V118.422Z" fill="#232B39"/>
<path d="M217.991 118.422H208.94V127.474H217.991V118.422Z" fill="#232B39"/>
<path d="M227.043 118.422H217.991V127.474H227.043V118.422Z" fill="#232B39"/>
<path d="M236.095 118.422H227.043V127.474H236.095V118.422Z" fill="#232B39"/>
<path d="M245.147 118.422H236.095V127.474H245.147V118.422Z" fill="#232B39"/>
<path d="M254.198 118.422H245.147V127.474H254.198V118.422Z" fill="#232B39"/>
<path d="M263.25 118.422H254.198V127.474H263.25V118.422Z" fill="#232B39"/>
<path d="M9.80172 127.474H0.75V136.526H9.80172V127.474Z" fill="#232B39"/>
<path d="M27.9052 127.474H18.8534V136.526H27.9052V127.474Z" fill="#232B39"/>
<path d="M36.9569 127.474H27.9052V136.526H36.9569V127.474Z" fill="#232B39"/>
<path d="M46.0086 127.474H36.9569V136.526H46.0086V127.474Z" fill="#232B39"/>
<path d="M55.0603 127.474H46.0086V136.526H55.0603V127.474Z" fill="#232B39"/>
<path d="M64.1121 127.474H55.0603V136.526H64.1121V127.474Z" fill="#232B39"/>
<path d="M82.2155 127.474H73.1638V136.526H82.2155V127.474Z" fill="#232B39"/>
<path d="M91.2673 127.474H82.2155V136.526H91.2673V127.474Z" fill="#232B39"/>
<path d="M109.371 127.474H100.319V136.526H109.371V127.474Z" fill="#232B39"/>
<path d="M118.422 127.474H109.371V136.526H118.422V127.474Z" fill="#232B39"/>
<path d="M127.474 127.474H118.422V136.526H127.474V127.474Z" fill="#232B39"/>
<path d="M136.526 127.474H127.474V136.526H136.526V127.474Z" fill="#232B39"/>
<path d="M145.578 127.474H136.526V136.526H145.578V127.474Z" fill="#232B39"/>
<path d="M154.629 127.474H145.578V136.526H154.629V127.474Z" fill="#232B39"/>
<path d="M172.733 127.474H163.681V136.526H172.733V127.474Z" fill="#232B39"/>
<path d="M181.785 127.474H172.733V136.526H181.785V127.474Z" fill="#232B39"/>
<path d="M208.94 127.474H199.888V136.526H208.94V127.474Z" fill="#232B39"/>
<path d="M9.80172 136.526H0.75V145.578H9.80172V136.526Z" fill="#232B39"/>
<path d="M18.8534 136.526H9.80172V145.578H18.8534V136.526Z" fill="#232B39"/>
<path d="M36.9569 136.526H27.9052V145.578H36.9569V136.526Z" fill="#232B39"/>
<path d="M46.0086 136.526H36.9569V145.578H46.0086V136.526Z" fill="#232B39"/>
<path d="M82.2155 136.526H73.1638V145.578H82.2155V136.526Z" fill="#232B39"/>
<path d="M109.371 136.526H100.319V145.578H109.371V136.526Z" fill="#232B39"/>
<path d="M136.526 136.526H127.474V145.578H136.526V136.526Z" fill="#232B39"/>
<path d="M154.629 136.526H145.578V145.578H154.629V136.526Z" fill="#232B39"/>
<path d="M181.785 136.526H172.733V145.578H181.785V136.526Z" fill="#232B39"/>
<path d="M208.94 136.526H199.888V145.578H208.94V136.526Z" fill="#232B39"/>
<path d="M227.043 136.526H217.991V145.578H227.043V136.526Z" fill="#232B39"/>
<path d="M254.198 136.526H245.147V145.578H254.198V136.526Z" fill="#232B39"/>
<path d="M27.9052 145.578H18.8534V154.629H27.9052V145.578Z" fill="#232B39"/>
<path d="M55.0603 145.578H46.0086V154.629H55.0603V145.578Z" fill="#232B39"/>
<path d="M64.1121 145.578H55.0603V154.629H64.1121V145.578Z" fill="#232B39"/>
<path d="M109.371 145.578H100.319V154.629H109.371V145.578Z" fill="#232B39"/>
<path d="M136.526 145.578H127.474V154.629H136.526V145.578Z" fill="#232B39"/>
<path d="M145.578 145.578H136.526V154.629H145.578V145.578Z" fill="#232B39"/>
<path d="M163.681 145.578H154.629V154.629H163.681V145.578Z" fill="#232B39"/>
<path d="M172.733 145.578H163.681V154.629H172.733V145.578Z" fill="#232B39"/>
<path d="M181.785 145.578H172.733V154.629H181.785V145.578Z" fill="#232B39"/>
<path d="M190.836 145.578H181.785V154.629H190.836V145.578Z" fill="#232B39"/>
<path d="M199.888 145.578H190.836V154.629H199.888V145.578Z" fill="#232B39"/>
<path d="M208.94 145.578H199.888V154.629H208.94V145.578Z" fill="#232B39"/>
<path d="M227.043 145.578H217.991V154.629H227.043V145.578Z" fill="#232B39"/>
<path d="M236.095 145.578H227.043V154.629H236.095V145.578Z" fill="#232B39"/>
<path d="M9.80172 154.629H0.75V163.681H9.80172V154.629Z" fill="#232B39"/>
<path d="M55.0603 154.629H46.0086V163.681H55.0603V154.629Z" fill="#232B39"/>
<path d="M82.2155 154.629H73.1638V163.681H82.2155V154.629Z" fill="#232B39"/>
<path d="M136.526 154.629H127.474V163.681H136.526V154.629Z" fill="#232B39"/>
<path d="M154.629 154.629H145.578V163.681H154.629V154.629Z" fill="#232B39"/>
<path d="M163.681 154.629H154.629V163.681H163.681V154.629Z" fill="#232B39"/>
<path d="M190.836 154.629H181.785V163.681H190.836V154.629Z" fill="#232B39"/>
<path d="M18.8534 163.681H9.80172V172.733H18.8534V163.681Z" fill="#232B39"/>
<path d="M55.0603 163.681H46.0086V172.733H55.0603V163.681Z" fill="#232B39"/>
<path d="M64.1121 163.681H55.0603V172.733H64.1121V163.681Z" fill="#232B39"/>
<path d="M73.1638 163.681H64.1121V172.733H73.1638V163.681Z" fill="#232B39"/>
<path d="M82.2155 163.681H73.1638V172.733H82.2155V163.681Z" fill="#232B39"/>
<path d="M91.2673 163.681H82.2155V172.733H91.2673V163.681Z" fill="#232B39"/>
<path d="M100.319 163.681H91.2673V172.733H100.319V163.681Z" fill="#232B39"/>
<path d="M109.371 163.681H100.319V172.733H109.371V163.681Z" fill="#232B39"/>
<path d="M127.474 163.681H118.422V172.733H127.474V163.681Z" fill="#232B39"/>
<path d="M136.526 163.681H127.474V172.733H136.526V163.681Z" fill="#232B39"/>
<path d="M163.681 163.681H154.629V172.733H163.681V163.681Z" fill="#232B39"/>
<path d="M199.888 163.681H190.836V172.733H199.888V163.681Z" fill="#232B39"/>
<path d="M217.991 163.681H208.94V172.733H217.991V163.681Z" fill="#232B39"/>
<path d="M236.095 163.681H227.043V172.733H236.095V163.681Z" fill="#232B39"/>
<path d="M263.25 163.681H254.198V172.733H263.25V163.681Z" fill="#232B39"/>
<path d="M9.80172 172.733H0.75V181.785H9.80172V172.733Z" fill="#232B39"/>
<path d="M46.0086 172.733H36.9569V181.785H46.0086V172.733Z" fill="#232B39"/>
<path d="M73.1638 172.733H64.1121V181.785H73.1638V172.733Z" fill="#232B39"/>
<path d="M91.2673 172.733H82.2155V181.785H91.2673V172.733Z" fill="#232B39"/>
<path d="M109.371 172.733H100.319V181.785H109.371V172.733Z" fill="#232B39"/>
<path d="M127.474 172.733H118.422V181.785H127.474V172.733Z" fill="#232B39"/>
<path d="M163.681 172.733H154.629V181.785H163.681V172.733Z" fill="#232B39"/>
<path d="M172.733 172.733H163.681V181.785H172.733V172.733Z" fill="#232B39"/>
<path d="M208.94 172.733H199.888V181.785H208.94V172.733Z" fill="#232B39"/>
<path d="M217.991 172.733H208.94V181.785H217.991V172.733Z" fill="#232B39"/>
<path d="M227.043 172.733H217.991V181.785H227.043V172.733Z" fill="#232B39"/>
<path d="M245.147 172.733H236.095V181.785H245.147V172.733Z" fill="#232B39"/>
<path d="M263.25 172.733H254.198V181.785H263.25V172.733Z" fill="#232B39"/>
<path d="M36.9569 181.785H27.9052V190.836H36.9569V181.785Z" fill="#232B39"/>
<path d="M64.1121 181.785H55.0603V190.836H64.1121V181.785Z" fill="#232B39"/>
<path d="M73.1638 181.785H64.1121V190.836H73.1638V181.785Z" fill="#232B39"/>
<path d="M100.319 181.785H91.2673V190.836H100.319V181.785Z" fill="#232B39"/>
<path d="M109.371 181.785H100.319V190.836H109.371V181.785Z" fill="#232B39"/>
<path d="M118.422 181.785H109.371V190.836H118.422V181.785Z" fill="#232B39"/>
<path d="M127.474 181.785H118.422V190.836H127.474V181.785Z" fill="#232B39"/>
<path d="M145.578 181.785H136.526V190.836H145.578V181.785Z" fill="#232B39"/>
<path d="M181.785 181.785H172.733V190.836H181.785V181.785Z" fill="#232B39"/>
<path d="M190.836 181.785H181.785V190.836H190.836V181.785Z" fill="#232B39"/>
<path d="M199.888 181.785H190.836V190.836H199.888V181.785Z" fill="#232B39"/>
<path d="M208.94 181.785H199.888V190.836H208.94V181.785Z" fill="#232B39"/>
<path d="M217.991 181.785H208.94V190.836H217.991V181.785Z" fill="#232B39"/>
<path d="M227.043 181.785H217.991V190.836H227.043V181.785Z" fill="#232B39"/>
<path d="M245.147 181.785H236.095V190.836H245.147V181.785Z" fill="#232B39"/>
<path d="M82.2155 190.836H73.1638V199.888H82.2155V190.836Z" fill="#232B39"/>
<path d="M91.2673 190.836H82.2155V199.888H91.2673V190.836Z" fill="#232B39"/>
<path d="M100.319 190.836H91.2673V199.888H100.319V190.836Z" fill="#232B39"/>
<path d="M136.526 190.836H127.474V199.888H136.526V190.836Z" fill="#232B39"/>
<path d="M145.578 190.836H136.526V199.888H145.578V190.836Z" fill="#232B39"/>
<path d="M181.785 190.836H172.733V199.888H181.785V190.836Z" fill="#232B39"/>
<path d="M190.836 190.836H181.785V199.888H190.836V190.836Z" fill="#232B39"/>
<path d="M227.043 190.836H217.991V199.888H227.043V190.836Z" fill="#232B39"/>
<path d="M236.095 190.836H227.043V199.888H236.095V190.836Z" fill="#232B39"/>
<path d="M263.25 190.836H254.198V199.888H263.25V190.836Z" fill="#232B39"/>
<path d="M9.80172 199.888H0.75V208.94H9.80172V199.888Z" fill="#232B39"/>
<path d="M18.8534 199.888H9.80172V208.94H18.8534V199.888Z" fill="#232B39"/>
<path d="M27.9052 199.888H18.8534V208.94H27.9052V199.888Z" fill="#232B39"/>
<path d="M36.9569 199.888H27.9052V208.94H36.9569V199.888Z" fill="#232B39"/>
<path d="M46.0086 199.888H36.9569V208.94H46.0086V199.888Z" fill="#232B39"/>
<path d="M55.0603 199.888H46.0086V208.94H55.0603V199.888Z" fill="#232B39"/>
<path d="M64.1121 199.888H55.0603V208.94H64.1121V199.888Z" fill="#232B39"/>
<path d="M82.2155 199.888H73.1638V208.94H82.2155V199.888Z" fill="#232B39"/>
<path d="M100.319 199.888H91.2673V208.94H100.319V199.888Z" fill="#232B39"/>
<path d="M118.422 199.888H109.371V208.94H118.422V199.888Z" fill="#232B39"/>
<path d="M127.474 199.888H118.422V208.94H127.474V199.888Z" fill="#232B39"/>
<path d="M145.578 199.888H136.526V208.94H145.578V199.888Z" fill="#232B39"/>
<path d="M163.681 199.888H154.629V208.94H163.681V199.888Z" fill="#232B39"/>
<path d="M190.836 199.888H181.785V208.94H190.836V199.888Z" fill="#232B39"/>
<path d="M208.94 199.888H199.888V208.94H208.94V199.888Z" fill="#232B39"/>
<path d="M227.043 199.888H217.991V208.94H227.043V199.888Z" fill="#232B39"/>
<path d="M245.147 199.888H236.095V208.94H245.147V199.888Z" fill="#232B39"/>
<path d="M254.198 199.888H245.147V208.94H254.198V199.888Z" fill="#232B39"/>
<path d="M9.80172 208.94H0.75V217.991H9.80172V208.94Z" fill="#232B39"/>
<path d="M64.1121 208.94H55.0603V217.991H64.1121V208.94Z" fill="#232B39"/>
<path d="M91.2673 208.94H82.2155V217.991H91.2673V208.94Z" fill="#232B39"/>
<path d="M100.319 208.94H91.2673V217.991H100.319V208.94Z" fill="#232B39"/>
<path d="M109.371 208.94H100.319V217.991H109.371V208.94Z" fill="#232B39"/>
<path d="M118.422 208.94H109.371V217.991H118.422V208.94Z" fill="#232B39"/>
<path d="M127.474 208.94H118.422V217.991H127.474V208.94Z" fill="#232B39"/>
<path d="M172.733 208.94H163.681V217.991H172.733V208.94Z" fill="#232B39"/>
<path d="M181.785 208.94H172.733V217.991H181.785V208.94Z" fill="#232B39"/>
<path d="M190.836 208.94H181.785V217.991H190.836V208.94Z" fill="#232B39"/>
<path d="M227.043 208.94H217.991V217.991H227.043V208.94Z" fill="#232B39"/>
<path d="M245.147 208.94H236.095V217.991H245.147V208.94Z" fill="#232B39"/>
<path d="M254.198 208.94H245.147V217.991H254.198V208.94Z" fill="#232B39"/>
<path d="M9.80172 217.991H0.75V227.043H9.80172V217.991Z" fill="#232B39"/>
<path d="M27.9052 217.991H18.8534V227.043H27.9052V217.991Z" fill="#232B39"/>
<path d="M36.9569 217.991H27.9052V227.043H36.9569V217.991Z" fill="#232B39"/>
<path d="M46.0086 217.991H36.9569V227.043H46.0086V217.991Z" fill="#232B39"/>
<path d="M64.1121 217.991H55.0603V227.043H64.1121V217.991Z" fill="#232B39"/>
<path d="M91.2673 217.991H82.2155V227.043H91.2673V217.991Z" fill="#232B39"/>
<path d="M100.319 217.991H91.2673V227.043H100.319V217.991Z" fill="#232B39"/>
<path d="M109.371 217.991H100.319V227.043H109.371V217.991Z" fill="#232B39"/>
<path d="M127.474 217.991H118.422V227.043H127.474V217.991Z" fill="#232B39"/>
<path d="M136.526 217.991H127.474V227.043H136.526V217.991Z" fill="#232B39"/>
<path d="M145.578 217.991H136.526V227.043H145.578V217.991Z" fill="#232B39"/>
<path d="M163.681 217.991H154.629V227.043H163.681V217.991Z" fill="#232B39"/>
<path d="M190.836 217.991H181.785V227.043H190.836V217.991Z" fill="#232B39"/>
<path d="M199.888 217.991H190.836V227.043H199.888V217.991Z" fill="#232B39"/>
<path d="M208.94 217.991H199.888V227.043H208.94V217.991Z" fill="#232B39"/>
<path d="M217.991 217.991H208.94V227.043H217.991V217.991Z" fill="#232B39"/>
<path d="M227.043 217.991H217.991V227.043H227.043V217.991Z" fill="#232B39"/>
<path d="M245.147 217.991H236.095V227.043H245.147V217.991Z" fill="#232B39"/>
<path d="M254.198 217.991H245.147V227.043H254.198V217.991Z" fill="#232B39"/>
<path d="M263.25 217.991H254.198V227.043H263.25V217.991Z" fill="#232B39"/>
<path d="M9.80172 227.043H0.75V236.095H9.80172V227.043Z" fill="#232B39"/>
<path d="M27.9052 227.043H18.8534V236.095H27.9052V227.043Z" fill="#232B39"/>
<path d="M36.9569 227.043H27.9052V236.095H36.9569V227.043Z" fill="#232B39"/>
<path d="M46.0086 227.043H36.9569V236.095H46.0086V227.043Z" fill="#232B39"/>
<path d="M64.1121 227.043H55.0603V236.095H64.1121V227.043Z" fill="#232B39"/>
<path d="M82.2155 227.043H73.1638V236.095H82.2155V227.043Z" fill="#232B39"/>
<path d="M100.319 227.043H91.2673V236.095H100.319V227.043Z" fill="#232B39"/>
<path d="M118.422 227.043H109.371V236.095H118.422V227.043Z" fill="#232B39"/>
<path d="M145.578 227.043H136.526V236.095H145.578V227.043Z" fill="#232B39"/>
<path d="M181.785 227.043H172.733V236.095H181.785V227.043Z" fill="#232B39"/>
<path d="M190.836 227.043H181.785V236.095H190.836V227.043Z" fill="#232B39"/>
<path d="M208.94 227.043H199.888V236.095H208.94V227.043Z" fill="#232B39"/>
<path d="M227.043 227.043H217.991V236.095H227.043V227.043Z" fill="#232B39"/>
<path d="M254.198 227.043H245.147V236.095H254.198V227.043Z" fill="#232B39"/>
<path d="M9.80172 236.095H0.75V245.147H9.80172V236.095Z" fill="#232B39"/>
<path d="M27.9052 236.095H18.8534V245.147H27.9052V236.095Z" fill="#232B39"/>
<path d="M36.9569 236.095H27.9052V245.147H36.9569V236.095Z" fill="#232B39"/>
<path d="M46.0086 236.095H36.9569V245.147H46.0086V236.095Z" fill="#232B39"/>
<path d="M64.1121 236.095H55.0603V245.147H64.1121V236.095Z" fill="#232B39"/>
<path d="M82.2155 236.095H73.1638V245.147H82.2155V236.095Z" fill="#232B39"/>
<path d="M91.2673 236.095H82.2155V245.147H91.2673V236.095Z" fill="#232B39"/>
<path d="M100.319 236.095H91.2673V245.147H100.319V236.095Z" fill="#232B39"/>
<path d="M145.578 236.095H136.526V245.147H145.578V236.095Z" fill="#232B39"/>
<path d="M154.629 236.095H145.578V245.147H154.629V236.095Z" fill="#232B39"/>
<path d="M163.681 236.095H154.629V245.147H163.681V236.095Z" fill="#232B39"/>
<path d="M172.733 236.095H163.681V245.147H172.733V236.095Z" fill="#232B39"/>
<path d="M190.836 236.095H181.785V245.147H190.836V236.095Z" fill="#232B39"/>
<path d="M199.888 236.095H190.836V245.147H199.888V236.095Z" fill="#232B39"/>
<path d="M208.94 236.095H199.888V245.147H208.94V236.095Z" fill="#232B39"/>
<path d="M254.198 236.095H245.147V245.147H254.198V236.095Z" fill="#232B39"/>
<path d="M263.25 236.095H254.198V245.147H263.25V236.095Z" fill="#232B39"/>
<path d="M9.80172 245.147H0.75V254.198H9.80172V245.147Z" fill="#232B39"/>
<path d="M64.1121 245.147H55.0603V254.198H64.1121V245.147Z" fill="#232B39"/>
<path d="M82.2155 245.147H73.1638V254.198H82.2155V245.147Z" fill="#232B39"/>
<path d="M91.2673 245.147H82.2155V254.198H91.2673V245.147Z" fill="#232B39"/>
<path d="M109.371 245.147H100.319V254.198H109.371V245.147Z" fill="#232B39"/>
<path d="M118.422 245.147H109.371V254.198H118.422V245.147Z" fill="#232B39"/>
<path d="M154.629 245.147H145.578V254.198H154.629V245.147Z" fill="#232B39"/>
<path d="M199.888 245.147H190.836V254.198H199.888V245.147Z" fill="#232B39"/>
<path d="M217.991 245.147H208.94V254.198H217.991V245.147Z" fill="#232B39"/>
<path d="M236.095 245.147H227.043V254.198H236.095V245.147Z" fill="#232B39"/>
<path d="M245.147 245.147H236.095V254.198H245.147V245.147Z" fill="#232B39"/>
<path d="M9.80172 254.198H0.75V263.25H9.80172V254.198Z" fill="#232B39"/>
<path d="M18.8534 254.198H9.80172V263.25H18.8534V254.198Z" fill="#232B39"/>
<path d="M27.9052 254.198H18.8534V263.25H27.9052V254.198Z" fill="#232B39"/>
<path d="M36.9569 254.198H27.9052V263.25H36.9569V254.198Z" fill="#232B39"/>
<path d="M46.0086 254.198H36.9569V263.25H46.0086V254.198Z" fill="#232B39"/>
<path d="M55.0603 254.198H46.0086V263.25H55.0603V254.198Z" fill="#232B39"/>
<path d="M64.1121 254.198H55.0603V263.25H64.1121V254.198Z" fill="#232B39"/>
<path d="M127.474 254.198H118.422V263.25H127.474V254.198Z" fill="#232B39"/>
<path d="M145.578 254.198H136.526V263.25H145.578V254.198Z" fill="#232B39"/>
<path d="M154.629 254.198H145.578V263.25H154.629V254.198Z" fill="#232B39"/>
<path d="M163.681 254.198H154.629V263.25H163.681V254.198Z" fill="#232B39"/>
<path d="M172.733 254.198H163.681V263.25H172.733V254.198Z" fill="#232B39"/>
<path d="M199.888 254.198H190.836V263.25H199.888V254.198Z" fill="#232B39"/>
<path d="M254.198 254.198H245.147V263.25H254.198V254.198Z" fill="#232B39"/>
</svg>
